<?xml version="1.0" standalone="no"?>
<!DOCTYPE svg PUBLIC "-//W3C//DTD SVG 20010904//EN"
 "http://www.w3.org/TR/2001/REC-SVG-20010904/DTD/svg10.dtd">
<svg version="1.0" xmlns="http://www.w3.org/2000/svg"
 width="260.000000pt" height="260.000000pt" viewBox="0 0 260.000000 260.000000"
 preserveAspectRatio="xMidYMid meet">
<metadata>
Created by potrace 1.11, written by Peter Selinger 2001-2013
</metadata>
<g transform="translate(0.000000,260.000000) scale(0.100000,-0.100000)"
fill="#000000" stroke="none">
<path d="M285 2586 c-112 -36 -200 -112 -249 -216 l-31 -65 0 -1005 0 -1005
31 -65 c39 -83 111 -155 194 -194 l65 -31 1005 0 1005 0 65 31 c83 39 155 111
194 194 l31 65 0 1005 0 1005 -31 65 c-39 83 -111 155 -194 194 l-65 31 -990
2 c-780 1 -998 -1 -1030 -11z m910 -1228 c120 -271 224 -508 232 -525 l13 -33
-73 0 -73 0 -56 127 -55 128 -280 3 -280 2 -54 -127 -55 -128 -73 -3 c-40 -2
-71 1 -69 5 3 4 108 241 234 525 l229 518 71 0 71 0 218 -492z m545 32 l0
-460 230 0 230 0 0 -65 0 -65 -300 0 -300 0 0 525 0 525 70 0 70 0 0 -460z"/>
<path d="M887 1670 c-97 -223 -207 -484 -204 -487 2 -2 103 -2 224 -1 l221 3
-109 250 c-60 138 -111 255 -113 260 -2 6 -11 -6 -19 -25z"/>
</g>
</svg>
