<?xml version="1.0" standalone="no"?>
<!DOCTYPE svg PUBLIC "-//W3C//DTD SVG 20010904//EN"
 "http://www.w3.org/TR/2001/REC-SVG-20010904/DTD/svg10.dtd">
<svg version="1.0" xmlns="http://www.w3.org/2000/svg"
 width="260.000000pt" height="260.000000pt" viewBox="0 0 260.000000 260.000000"
 preserveAspectRatio="xMidYMid meet">
<metadata>
Created by potrace 1.11, written by Peter Selinger 2001-2013
</metadata>
<g transform="translate(0.000000,260.000000) scale(0.100000,-0.100000)"
fill="#000000" stroke="none">
<path d="M306 2589 c-62 -15 -153 -68 -197 -116 -22 -24 -55 -74 -72 -111
l-32 -67 0 -995 0 -995 32 -67 c44 -93 100 -151 191 -196 l76 -37 996 0 996 0
76 37 c91 45 147 103 191 196 l32 67 0 996 0 995 -37 76 c-45 91 -103 147
-196 191 l-67 32 -975 2 c-568 1 -991 -3 -1014 -8z m906 -1259 c125 -283 228
-519 228 -523 0 -4 -34 -7 -76 -5 l-77 3 -51 120 -52 120 -280 3 -281 2 -53
-125 -53 -125 -73 0 c-41 0 -74 3 -74 6 0 4 97 225 216 493 119 267 223 501
231 519 l14 33 76 -3 77 -3 228 -515z m528 60 l0 -460 230 0 230 0 0 -65 0
-65 -300 0 -300 0 0 525 0 525 70 0 70 0 0 -460z"/>
<path d="M898 1684 c-17 -28 -209 -487 -205 -490 2 -2 99 -3 215 -2 l211 3
-100 230 c-55 127 -104 239 -108 249 -4 11 -10 15 -13 10z"/>
</g>
</svg>
