<?xml version="1.0" standalone="no"?>
<!DOCTYPE svg PUBLIC "-//W3C//DTD SVG 20010904//EN"
 "http://www.w3.org/TR/2001/REC-SVG-20010904/DTD/svg10.dtd">
<svg version="1.0" xmlns="http://www.w3.org/2000/svg"
 width="256.000000pt" height="256.000000pt" viewBox="0 0 256.000000 256.000000"
 preserveAspectRatio="xMidYMid meet">
<metadata>
Created by potrace 1.15, written by Peter Selinger 2001-2017
</metadata>
<g transform="translate(0.000000,256.000000) scale(0.100000,-0.100000)"
fill="#000000" stroke="none">
<path d="M441 1363 c-68 -236 -126 -434 -128 -441 -4 -10 15 -12 88 -10 l92 3
74 275 c41 151 78 278 82 282 3 4 42 -121 86 -278 l79 -285 89 3 90 3 76 267
c42 146 78 269 81 272 3 2 41 -119 84 -270 l79 -275 90 3 90 3 74 260 c41 143
78 263 82 268 4 4 43 -114 86 -263 l78 -270 88 0 87 0 11 33 c8 25 167 563
236 800 l14 47 -93 0 -93 0 -78 -274 c-43 -151 -81 -273 -84 -271 -4 2 -42
125 -86 274 l-80 271 -86 0 -86 0 -79 -275 c-43 -151 -80 -272 -83 -269 -3 3
-40 126 -81 272 l-75 267 -91 3 -90 3 -79 -275 c-44 -152 -81 -273 -83 -271
-2 2 -39 124 -81 272 l-77 268 -90 3 -89 2 -124 -427z"/>
</g>
</svg>
